# AST/ASF file generated using VICON BodyLanguage
# -----------------------------------------------
:version 1.10
:name VICON
:units
  mass 1.0
  length 0.45
  angle deg
:documentation
   .ast/.asf automatically generated from VICON data using
   VICON BodyBuilder and BodyLanguage model FoxedUp or BRILLIANT.MOD
:root
   order TX TY TZ RX RY RZ
   axis XYZ
   position 0 0 0  
   orientation 0 0 0 
:bonedata
  begin
     id 1 
     name lhipjoint
     direction 0.660183 -0.676772 0.325788 
     length 2.75133 
     axis 0 0 0  XYZ
  end
  begin
     id 2 
     name lfemur
     direction 0.34202 -0.939693 0  
     length 7.70317  
     axis 0 0 20  XYZ
    dof rx ry rz
    limits (-160.0 20.0)
           (-70.0 70.0)
           (-60.0 70.0)
  end
  begin
     id 3 
     name ltibia
     direction 0.342105 -0.939662 0   
     length 7.18701   
     axis 0 0 20   XYZ
    dof rx
    limits (-10.0 170.0)
  end
  begin
     id 4 
     name lfoot
     direction 0.14163 -0.389126 0.910232   
     length 2.41719   
     axis -90 7.62852e-016 20   XYZ
    dof rx rz
    limits (-45.0 90.0)
           (-70.0 20.0)
  end
  begin
     id 5 
     name ltoes
     direction 1.53533e-011 -4.21926e-011 1   
     length 1.18611   
     axis -90 7.62852e-016 20   XYZ
    dof rx
    limits (-90.0 20.0)
  end
  begin
     id 6 
     name rhipjoint
     direction -0.6658 -0.67229 0.323631   
     length 2.76968  
     axis 0 0 0  XYZ 
  end
  begin
     id 7 
     name rfemur
     direction -0.34202 -0.939693 0   
     length 7.92547   
     axis 0 0 -20   XYZ
    dof rx ry rz
    limits (-160.0 20.0)
           (-70.0 70.0)
           (-70.0 60.0)
  end
  begin
     id 8 
     name rtibia
     direction -0.342022 -0.939692 0   
     length 7.22641   
     axis 0 0 -20   XYZ
    dof rx
    limits (-10.0 170.0)
 end
 begin
     id 9 
     name rfoot
     direction -0.105675 -0.29034 0.951071   
     length 2.48149  
     axis -90 -7.62852e-016 -20   XYZ
    dof rx rz
    limits (-45.0 90.0)
           (-20.0 70.0)
  end
  begin
     id 10 
     name rtoes
     direction -1.5349e-011 -4.21859e-011 1   
     length 1.23343   
     axis -90 -7.62852e-016 -20   XYZ
    dof rx
    limits (-90.0 20.0)
  end
  begin
     id 11 
     name lowerback
     direction 0.0104173 0.993624 -0.112266   
     length 2.00527   
     axis 0 0 0   XYZ
    dof rx ry rz
    limits (-20.0 45.0)
           (-30.0 30.0)
           (-30.0 30.0)
  end
  begin
     id 12 
     name upperback
     direction 0.00733149 0.999856 -0.0152913   
     length 2.01385   
     axis 0 0 0   XYZ
    dof rx ry rz
    limits (-20.0 45.0)
           (-30.0 30.0)
           (-30.0 30.0)
  end
  begin
     id 13 
     name thorax
     direction 0.0026304 0.999318 0.036841   
     length 2.03734   
     axis 0 0 0   XYZ
    dof rx ry rz
    limits (-20.0 45.0)
           (-30.0 30.0)
           (-30.0 30.0)
  end
  begin
     id 14 
     name lowerneck
     direction 0.0293154 0.998757 0.0403082   
     length 1.65303   
     axis 0 0 0   XYZ
    dof rx ry rz
    limits (-20.0 45.0)
           (-30.0 30.0)
           (-30.0 30.0)
  end
  begin
     id 15 
     name upperneck
     direction -0.0376619 0.998184 -0.0470083   
     length 1.60926   
     axis 0 0 0   XYZ
    dof rx ry rz
    limits (-20.0 45.0)
           (-30.0 30.0)
           (-30.0 30.0)
  end
  begin
     id 16
     name head
     direction -0.0170133 0.999635 -0.0209778  
     length 1.73625  
     axis 0 0 0   XYZ
    dof rx ry rz
    limits (-20.0 45.0)
           (-30.0 30.0)
           (-30.0 30.0)
  end
  begin
     id 17 
     name lclavicle
     direction 0.919857 0.39181 -0.0186333  
     length 3.75313  
     axis 0 0 0   XYZ
    dof ry rz
    limits (-20.0 10.0)
           (0.0 20.0)
  end
  begin
     id 18 
     name lhumerus
     direction 1 -4.48988e-011 1.44029e-027   
     length 5.49313   
     axis 180 -30 -90   XYZ
    dof rx ry rz
    limits (-60.0 90.0)
           (-90.0 90.0)
           (-90.0 90.0)
  end
  begin
     id 19
     name lradius
     direction 1 -4.48924e-011 7.46281e-027   
     length 3.29037   
     axis 180 -30 -90   XYZ
    dof rx
    limits (-10.0 170.0)
  end
  begin
     id 20
     name lwrist
     direction 1 -4.48955e-011 2.19879e-026   
     length 1.64519   
     axis -1.34358e-014 90 90   XYZ
    dof ry
    limits (-180.0 0.0)
 end
  begin
     id 21 
     name lhand
     direction 1 -4.48978e-011 4.39747e-026   
     length 0.729656   
     axis -2.80598e-014 90 90   XYZ
    dof rx rz
    limits (-90.0 90.0)
           (-45.0 45.0)
  end
  begin
     id 22 
     name lfingers
     direction 1 -4.49071e-011 8.79411e-026   
     length 0.588268   
     axis -5.61193e-014 90 90   XYZ
    dof rx
    limits (0.0 90.0)
  end
  begin
     id 23
     name lthumb
     direction 0.707107 -6.34817e-011 0.707107   
     length 0.844638   
     axis -90 45 -9.86923e-015   XYZ
    dof rx rz
    limits (-45.0 45.0)
           (-45.0 45.0)
  end
  begin
     id 24 
     name rclavicle
     direction -0.919898 0.388279 0.0550233   
     length 3.7171  
     axis 0 0 0   XYZ 
    dof ry rz
    limits (-10.0 20.0)
           (-20.0 0.0)
  end
  begin
     id 25 
     name rhumerus
     direction -1 -4.48968e-011 9.98372e-028  
     length 5.23684   
     axis 180 30 90   XYZ
    dof rx ry rz
    limits (-90.0 60.0)
           (-90.0 90.0)
           (-90.0 90.0)
  end
  begin
     id 26 
     name rradius
     direction -1 -4.48956e-011 1.01023e-026   
     length 3.38251   
     axis 180 30 90   XYZ
    dof rx
    limits (-10.0 170.0)
  end
  begin
     id 27 
     name rwrist
     direction -1 -4.4892e-011 2.19886e-026   
     length 1.69126   
     axis -1.34358e-014 -90 -90   XYZ
    dof ry
    limits (-180.0 0.0)
  end
  begin
     id 28
     name rhand
     direction -1 -4.49024e-011 4.39727e-026   
     length 0.691454   
     axis -2.80598e-014 -90 -90   XYZ
    dof rx rz
    limits (-90.0 90.0)
           (-45.0 45.0)
  end
  begin
     id 29
     name rfingers
     direction -1 -4.49097e-011 8.79388e-026   
     length 0.557468   
     axis -5.61193e-014 -90 -90   XYZ
    dof rx
    limits (0.0 90.0)
  end
  begin
     id 30
     name rthumb
     direction -0.707107 -6.34938e-011 0.707107   
     length 0.800416   
     axis -90 -45 9.86923e-015   XYZ
    dof rx rz
    limits (-45.0 45.0)
           (-45.0 45.0)
  end
:hierarchy
  begin
    root lhipjoint rhipjoint lowerback
    lhipjoint lfemur
    lfemur ltibia
    ltibia lfoot
    lfoot ltoes
    rhipjoint rfemur
    rfemur rtibia
    rtibia rfoot
    rfoot rtoes
    lowerback upperback
    upperback thorax
    thorax lowerneck lclavicle rclavicle
    lowerneck upperneck
    upperneck head
    lclavicle lhumerus
    lhumerus lradius
    lradius lwrist
    lwrist lhand lthumb
    lhand lfingers
    rclavicle rhumerus
    rhumerus rradius
    rradius rwrist
    rwrist rhand rthumb
    rhand rfingers
  end

#!OML:ASF H:\BabyWalks\Project 1\Capture day 1\Session 1\baby.ASF
:FULLY-SPECIFIED
:DEGREES
62
root -32.9157 17.4881 -2.58111 -15.345 75.6904 -15.549
lowerback 15.0729 -0.0784757 -0.3503
upperback 5.81206 0.177851 2.17824
thorax -2.3068 0.171076 2.44578
lowerneck -0.802133 4.59735 1.75885
upperneck -12.1343 6.04795 -4.24763
head -3.60003 3.18775 -1.87707
rclavicle -1.57661e-014 7.40473e-015
rhumerus -45.8096 20.0149 -85.2641
rradius 41.8941
rwrist -2.0201
rhand -9.79576 -15.3773
rfingers 7.12502
rthumb 16.1803 -44.722
lclavicle -1.57661e-014 7.40473e-015
lhumerus -47.3228 -9.35809 84.9398
lradius 53.2085
lwrist 5.75001
lhand 1.49649 11.0108
lfingers 7.12502
lthumb 27.023 39.0976
rfemur 4.47852 14.791 25.344
rtibia 17.9497
rfoot -23.4957 3.02346
rtoes 7.60974
lfemur -19.9713 -5.82037 -7.64563
ltibia 31.484
lfoot -16.5525 -12.2556
ltoes -8.32064
63
root -32.921 17.4858 -2.57169 -15.2425 75.7575 -15.3502
lowerback 15.0467 -0.0813623 -0.370556
upperback 5.82911 0.170222 2.15117
thorax -2.27452 0.167212 2.42995
lowerneck -0.759815 4.58996 1.79169
upperneck -12.12 6.03713 -4.2602
head -3.60206 3.18114 -1.88775
rclavicle 1.43249e-014 7.25564e-015
rhumerus -45.7879 19.9907 -85.3077
rradius 41.9102
rwrist -2.00158
rhand -9.79217 -15.3754
rfingers 7.12502
rthumb 16.1838 -44.7198
lclavicle 1.43249e-014 7.25564e-015
lhumerus -47.2708 -9.39037 84.8976
lradius 53.1558
lwrist 5.71401
lhand 1.47122 10.9422
lfingers 7.12502
lthumb 26.9988 39.0327
rfemur 4.54845 14.8052 25.3479
rtibia 18.0248
rfoot -23.5391 2.93481
rtoes 7.3435
lfemur -19.8752 -5.81341 -7.69856
ltibia 31.4295
lfoot -16.5232 -12.3303
ltoes -8.3752
64
root -32.9266 17.4836 -2.56242 -15.213 75.852 -15.2367
lowerback 15.0177 -0.0963909 -0.369576
upperback 5.83871 0.149745 2.13016
thorax -2.24805 0.157142 2.41058
lowerneck -0.727637 4.58154 1.82606
upperneck -12.0854 6.02416 -4.27918
head -3.59484 3.17333 -1.89967
rclavicle 5.91384e-015 -4.32357e-015
rhumerus -45.7677 19.9509 -85.3394
rradius 41.9159
rwrist -1.97115
rhand -9.78968 -15.3712
rfingers 7.12502
rthumb 16.1862 -44.7154
lclavicle 5.91384e-015 -4.32357e-015
lhumerus -47.2133 -9.40976 84.8574
lradius 53.0813
lwrist 5.66765
lhand 1.44632 10.8703
lfingers 7.12502
lthumb 26.975 38.9645
rfemur 4.63258 14.7881 25.3605
rtibia 18.0476
rfoot -23.5509 2.85588
rtoes 7.09855
lfemur -19.8064 -5.82295 -7.7369
ltibia 31.3821
lfoot -16.4894 -12.4175
ltoes -8.35385
65
root -32.9315 17.4818 -2.55362 -15.2717 75.9523 -15.2191
lowerback 14.984 -0.117917 -0.33676
upperback 5.84244 0.125291 2.11598
thorax -2.22509 0.145372 2.38097
lowerneck -0.699687 4.57246 1.86399
upperneck -12.0358 6.00936 -4.3073
head -3.58127 3.16459 -1.91452
rclavicle -1.39646e-014 -3.57812e-015
rhumerus -45.7515 19.8953 -85.3585
rradius 41.9092
rwrist -1.93038
rhand -9.79114 -15.3659
rfingers 7.12502
rthumb 16.1848 -44.7102
lclavicle -1.39646e-014 -3.57812e-015
lhumerus -47.1553 -9.41377 84.8203
lradius 52.9879
lwrist 5.61281
lhand 1.42217 10.7884
lfingers 7.12502
lthumb 26.9519 38.8863
rfemur 4.73545 14.7545 25.39
rtibia 18.0226
rfoot -23.5385 2.79159
rtoes 6.87518
lfemur -19.7501 -5.84414 -7.75357
ltibia 31.3446
lfoot -16.459 -12.5033
ltoes -8.36835
66
root -32.9362 17.4804 -2.54533 -15.4287 76.0587 -15.3112
lowerback 14.9485 -0.145922 -0.272761
upperback 5.83846 0.0968482 2.11094
thorax -2.20928 0.13189 2.34392
lowerneck -0.679571 4.56275 1.90293
upperneck -11.9719 5.99306 -4.34155
head -3.56106 3.1551 -1.93075
rclavicle -8.94531e-015 -1.0138e-014
rhumerus -45.7428 19.8289 -85.3635
rradius 41.8986
rwrist -1.88632
rhand -9.79503 -15.3525
rfingers 7.12502
rthumb 16.181 -44.6971
lclavicle -8.94531e-015 -1.0138e-014
lhumerus -47.0987 -9.40018 84.7875
lradius 52.8808
lwrist 5.5532
lhand 1.39823 10.7389
lfingers 7.12502
lthumb 26.9289 38.8403
rfemur 4.84763 14.7039 25.4387
rtibia 17.9571
rfoot -23.5004 2.74074
rtoes 6.686
lfemur -19.7129 -5.87615 -7.74445
ltibia 31.3187
lfoot -16.4318 -12.5865
ltoes -8.41446
67
root -32.9407 17.4792 -2.53749 -15.6791 76.1655 -15.5078
lowerback 14.9113 -0.177242 -0.181821
upperback 5.82732 0.0679921 2.1161
thorax -2.20015 0.118409 2.30237
lowerneck -0.670043 4.55348 1.93595
upperneck -11.8928 5.97728 -4.3744
head -3.53378 3.14583 -1.94459
rclavicle 7.1811e-015 -8.69683e-015
rhumerus -45.7487 19.7555 -85.3552
rradius 41.8945
rwrist -1.84728
rhand -9.80283 -15.3455
rfingers 7.12502
rthumb 16.1735 -44.6907
lclavicle 7.1811e-015 -8.69683e-015
lhumerus -47.0465 -9.36972 84.7607
lradius 52.7665
lwrist 5.48826
lhand 1.37733 10.7168
lfingers 7.12502
lthumb 26.9089 38.8213
rfemur 4.96558 14.6382 25.5058
rtibia 17.855
rfoot -23.4299 2.70927
rtoes 6.50312
lfemur -19.693 -5.91736 -7.70892
ltibia 31.3038
lfoot -16.4092 -12.6644
ltoes -8.47406
68
root -32.9449 17.4784 -2.5302 -16.0004 76.2647 -15.7837
lowerback 14.8755 -0.208759 -0.0692382
upperback 5.80942 0.0420319 2.12975
thorax -2.19908 0.106523 2.25699
lowerneck -0.664158 4.54399 1.96739
upperneck -11.8091 5.96107 -4.40856
head -3.50422 3.1364 -1.95828
rclavicle 2.27608e-014 -1.54555e-014
rhumerus -45.7644 19.6739 -85.3321
rradius 41.889
rwrist -1.81041
rhand -9.81002 -15.3393
rfingers 7.12502
rthumb 16.1666 -44.6851
lclavicle 2.27608e-014 -1.54555e-014
lhumerus -47.0047 -9.3231 84.7404
lradius 52.6516
lwrist 5.42093
lhand 1.35549 10.7362
lfingers 7.12502
lthumb 26.888 38.8439
rfemur 5.0856 14.5629 25.5868
rtibia 17.7281
rfoot -23.3388 2.69139
rtoes 6.33155
lfemur -19.6828 -5.96536 -7.65179
ltibia 31.2981
lfoot -16.3921 -12.7294
ltoes -8.54131
69
root -32.9489 17.4778 -2.52337 -16.3624 76.3504 -16.1066
lowerback 14.8437 -0.237911 0.0570639
upperback 5.78538 0.0211872 2.14946
thorax -2.20685 0.0972518 2.2094
lowerneck -0.666447 4.53482 1.99495
upperneck -11.721 5.94553 -4.43997
head -3.47185 3.1273 -1.96996
rclavicle 2.35311e-014 -2.25621e-014
rhumerus -45.789 19.5861 -85.2965
rradius 41.8838
rwrist -1.77738
rhand -9.81469 -15.3368
rfingers 7.12502
rthumb 16.1621 -44.6829
lclavicle 2.35311e-014 -2.25621e-014
lhumerus -46.9746 -9.26374 84.7265
lradius 52.5412
lwrist 5.35522
lhand 1.3372 10.7604
lfingers 7.12502
lthumb 26.8705 38.8708
rfemur 5.20367 14.4854 25.6763
rtibia 17.5871
rfoot -23.2295 2.6884
rtoes 6.15234
lfemur -19.6766 -6.01744 -7.57891
ltibia 31.2975
lfoot -16.3783 -12.7792
ltoes -8.6571
70
root -32.9527 17.4775 -2.51688 -16.7383 76.4198 -16.4475
lowerback 14.8166 -0.261854 0.188558
upperback 5.75619 0.00801658 2.17398
thorax -2.22295 0.0917623 2.1627
lowerneck -0.666868 4.52444 2.02396
upperneck -11.6413 5.92833 -4.47354
head -3.44277 3.11753 -1.98295
rclavicle -2.41026e-015 3.18055e-015
rhumerus -45.8213 19.4942 -85.2488
rradius 41.877
rwrist -1.75058
rhand -9.81469 -15.336
rfingers 7.12502
rthumb 16.1621 -44.6821
lclavicle -2.41026e-015 3.18055e-015
lhumerus -46.9605 -9.19853 84.7221
lradius 52.4403
lwrist 5.29389
lhand 1.31616 10.7812
lfingers 7.12502
lthumb 26.8504 38.8947
rfemur 5.31582 14.4101 25.7694
rtibia 17.4433
rfoot -23.1075 2.69593
rtoes 5.95995
lfemur -19.669 -6.07013 -7.4961
ltibia 31.2983
lfoot -16.3683 -12.8138
ltoes -8.68227
71
root -32.9566 17.4773 -2.51069 -17.0995 76.4761 -16.7756
lowerback 14.794 -0.281368 0.315916
upperback 5.7257 0.000219916 2.20073
thorax -2.24291 0.0888454 2.11984
lowerneck -0.670247 4.51548 2.05199
upperneck -11.5726 5.91349 -4.50443
head -3.41704 3.10906 -1.99521
rclavicle 1.69961e-014 0
rhumerus -45.864 19.4101 -85.1945
rradius 41.8846
rwrist -1.74027
rhand -9.81098 -15.3522
rfingers 7.12502
rthumb 16.1657 -44.698
lclavicle 1.69961e-014 0
lhumerus -46.9615 -9.12846 84.7262
lradius 52.3556
lwrist 5.23945
lhand 1.29267 10.7961
lfingers 7.12502
lthumb 26.8279 38.9131
rfemur 5.41861 14.3365 25.8589
rtibia 17.3072
rfoot -22.9814 2.71042
rtoes 5.75342
lfemur -19.6579 -6.12059 -7.41232
ltibia 31.2956
lfoot -16.3577 -12.8376
ltoes -8.71946
72
root -32.9608 17.4772 -2.50462 -17.4231 76.5188 -17.0692
lowerback 14.773 -0.29509 0.431866
upperback 5.69467 -0.00150258 2.22899
thorax -2.26451 0.0887542 2.08405
lowerneck -0.669015 4.50658 2.08175
upperneck -11.5249 5.89893 -4.53634
head -3.39946 3.10103 -2.00903
rclavicle -2.23633e-015 1.51076e-014
rhumerus -45.9268 19.3437 -85.1385
rradius 41.9261
rwrist -1.75471
rhand -9.80214 -15.3815
rfingers 7.12502
rthumb 16.1742 -44.7267
lclavicle -2.23633e-015 1.51076e-014
lhumerus -46.9766 -9.05954 84.7403
lradius 52.2873
lwrist 5.19435
lhand 1.26831 10.8214
lfingers 7.12502
lthumb 26.8046 38.9419
rfemur 5.50363 14.2691 25.9412
rtibia 17.1931
rfoot -22.8546 2.72719
rtoes 5.51778
lfemur -19.6428 -6.16448 -7.33148
ltibia 31.2863
lfoot -16.3457 -12.8529
ltoes -8.75661
